<?xml version="1.0" encoding="UTF-8" standalone="no"?>
<!-- Created with Inkscape (http://www.inkscape.org/) -->

<svg
   xmlns:dc="http://purl.org/dc/elements/1.1/"
   xmlns:cc="http://creativecommons.org/ns#"
   xmlns:rdf="http://www.w3.org/1999/02/22-rdf-syntax-ns#"
   xmlns:svg="http://www.w3.org/2000/svg"
   xmlns="http://www.w3.org/2000/svg"
   xmlns:sodipodi="http://sodipodi.sourceforge.net/DTD/sodipodi-0.dtd"
   xmlns:inkscape="http://www.inkscape.org/namespaces/inkscape"
   width="13537.143"
   height="9554.1484"
   id="svg2"
   version="1.1"
   inkscape:version="0.48.3.1 r9886"
   sodipodi:docname="mentor_logo.svg">
  <defs
     id="defs4" />
  <sodipodi:namedview
     id="base"
     pagecolor="#ffffff"
     bordercolor="#666666"
     borderopacity="1.0"
     inkscape:pageopacity="0.0"
     inkscape:pageshadow="2"
     inkscape:zoom="0.04375"
     inkscape:cx="10584.648"
     inkscape:cy="3204.0268"
     inkscape:document-units="px"
     inkscape:current-layer="layer1"
     showgrid="false"
     inkscape:window-width="1400"
     inkscape:window-height="1000"
     inkscape:window-x="0"
     inkscape:window-y="0"
     inkscape:window-maximized="1"
     fit-margin-top="0"
     fit-margin-left="0"
     fit-margin-right="0"
     fit-margin-bottom="0" />
  <metadata
     id="metadata7">
    <rdf:RDF>
      <cc:Work
         rdf:about="">
        <dc:format>image/svg+xml</dc:format>
        <dc:type
           rdf:resource="http://purl.org/dc/dcmitype/StillImage" />
        <dc:title></dc:title>
      </cc:Work>
    </rdf:RDF>
  </metadata>
  <g
     inkscape:label="Capa 1"
     inkscape:groupmode="layer"
     id="layer1"
     transform="translate(6344.2856,4367.5688)">
    <path
       style="fill:#ff7f00;fill-opacity:1;stroke:none"
       d="m -2275.888,-3170.5917 -3775.7204,1156.0794 1448.7916,3344.7084 8056.3028,-14.0986 -5729.374,-4486.6892 z m -314.1958,518.9602 4579.3378,3439.36985 -6092.58,260.48715 -1464.9044,-2582.045 2978.1466,-1117.812 z"
       id="path2998"
       inkscape:connector-curvature="0" />
    <path
       style="fill:#174fe5;fill-opacity:1;stroke:none"
       d="m -6007.4193,-4110.9059 2410.3019,0 1661.4889,3495.38029 -4074.188,-1799.24099 z"
       id="path2996"
       inkscape:connector-curvature="0" />
    <path
       style="fill:#0c2c7f;fill-opacity:1"
       d="m 5698.5949,-96.543114 -118.8316,30.211148 -0.6662,598.851806 c -0.2161,333.79948 6.6341,630.05356 14.0976,657.93136 7.6011,28.3939 43.1991,63.2229 80.5632,79.8917 39.5468,17.6407 97.0796,24.9155 141.6578,17.4553 108.3709,-18.1355 126.6943,-33.1382 106.0743,-87.9479 -15.0553,-40.027 -29.6602,-45.3502 -93.9902,-34.9107 -67.6493,10.9779 -77.727,5.9572 -97.3478,-45.6524 -13.03,-34.2681 -16.4502,-294.29114 -22.1539,-638.46194 l -9.3988,-577.368374 z m -943.26,430.340814 -114.1311,21.48348 -7.3836,394.75884 c -6.9111,365.96238 3.1944,398.21228 44.3096,450.48158 24.3751,30.988 75.1299,65.9435 112.7882,77.2063 88.4731,26.4596 199.8435,9.1484 292.7122,-44.9811 l 73.8498,-42.9669 36.9233,49.0091 c 18.3127,24.2781 19.5158,47.6042 34.9107,49.0092 l 108.09,-52.366 c 1.1814,-12.8129 -13.4808,-39.5635 -27.5268,-73.178 -23.5955,-56.4756 -25.7457,-169.71818 -31.5527,-453.8384 l -7.3862,-372.604 -119.5017,17.45533 c -23.9282,3.4876 -1.9552,71.29354 -6.7135,361.86225 l -6.0412,359.84812 -104.0617,51.6947 c -81.3322,40.3182 -117.1539,47.6894 -161.126,32.2252 -95.997,-33.7602 -102.5728,-95.8623 -110.773,-478.00731 z m -723.0519,5.37088 c -15.9601,0.608 -32.3909,1.82396 -49.0105,4.02814 -112.872,14.97314 -176.0546,34.4191 -232.9601,73.17811 l 46.9949,108.76008 c 39.4481,-16.65142 4.4063,-1.88196 86.6044,-30.88249 96.0354,-33.88332 208.6471,-40.41881 247.0598,-14.7699 51.4121,37.17093 82.6362,76.26526 72.5068,222.89105 -137.3998,-8.0516 -266.52,-8.87417 -397.4445,96.00428 -65.1034,59.66431 -94.6131,109.89549 -102.0466,210.13525 -10.7222,144.5603 55.421,237.3339 161.1265,268.5434 38.8529,11.4704 89.8287,16.3603 113.4605,11.4131 23.6318,-4.9472 53.3413,-8.5558 66.4635,-8.7277 13.1199,-0.172 58.3533,-23.4099 100.0335,-51.6946 l 75.8623,-51.6946 23.4985,51.6946 38.2667,60.4223 111.4453,-63.1077 c 0.2559,-15.4071 -14.6454,-48.2453 -28.1968,-85.9339 -20.6994,-57.5669 -31.6026,-179.15458 -32.2255,-367.90451 -0.8377,-249.10688 -6.0261,-287.67963 -44.3095,-336.35063 -51.7086,-65.73684 -145.4068,-100.25392 -257.1292,-96.00428 z m 2295.3736,0 c -15.9601,0.608 -32.3883,1.82396 -49.0079,4.02814 -112.872,14.97314 -176.0573,34.4191 -232.9627,73.17811 l 46.9953,108.76008 c 39.4498,-16.65142 4.4085,-1.88196 86.6062,-30.88249 96.0354,-33.88332 208.6476,-40.41881 247.0598,-14.7699 51.4099,37.17093 82.6344,76.26526 72.5068,222.89105 -137.3998,-8.0516 -266.5195,-8.87417 -397.4441,96.00428 -65.1038,59.66431 -94.6131,109.89549 -102.0465,210.13525 -10.7223,144.5603 55.4209,237.3339 161.1259,268.5434 38.853,11.4704 89.8266,16.3603 113.4584,11.4131 23.6322,-4.9472 53.3435,-8.5558 66.4657,-8.7277 13.1199,-0.172 58.3515,-23.4096 100.0313,-51.6946 l 75.8649,-51.6946 23.4964,51.6946 38.2684,60.4223 111.4453,-63.1077 c 0.2603,-15.4071 -14.645,-48.2453 -28.1968,-85.9339 -20.6994,-57.5669 -31.6021,-179.15458 -32.2251,-367.90451 -0.8381,-249.10688 -6.0261,-287.67963 -44.31,-336.35063 -51.7103,-65.73684 -145.4085,-100.25392 -257.1313,-96.00428 z m -2123.5059,474.65052 -0.6662,241.689 c -144.82,159.9688 -396.8706,176.4505 -342.3928,-102.71781 20.6672,-74.86389 94.3814,-105.36205 228.2622,-123.52994 l 114.8034,-15.44125 z m 2295.374,0 -0.6662,241.689 c -144.8222,159.9688 -396.8728,176.4505 -342.3928,-102.71781 20.6672,-74.86389 94.381,-105.36205 228.2617,-123.52994 L 6499.5286,813.8191 z M 3735.5426,2098.128 c -286.7077,1.4974 -537.4758,162.7637 -666.6604,445.7821 -102.2248,223.9633 -138.2998,437.4318 -138.2998,819.0575 0,704.9359 177.443,1092.8273 564.6134,1233.2856 138.1754,50.1279 425.6158,36.2192 571.3252,-27.5258 208.4156,-91.1779 365.6744,-312.5554 451.8257,-636.448 32.4526,-122.0115 39.3942,-229.422 39.609,-569.3118 0.2162,-373.9891 -4.8019,-437.3663 -49.0083,-590.1243 -106.8652,-369.2787 -262.0339,-557.712 -525.6749,-637.7906 -83.9936,-25.5127 -167.453,-37.3439 -247.7299,-36.9247 z m -1248.0568,43.6383 -1505.18591,7.385 0,247.0599 579.38351,0 25.5116,2204.7416 285.3263,0 -10.0693,-2204.7416 552.5271,0 z m 3048.6402,1.3427 -290.0269,6.0423 c -4.8832,1066.5673 -18.2307,1573.3401 -14.7699,2453.8154 l 274.5848,-2.013 8.7287,-1109.0842 271.2289,0 286.6688,553.1994 308.1549,581.3963 304.7968,-38.9385 -278.6152,-541.7863 -314.1956,-586.0964 195.3662,-103.389 c 132.3596,-70.0694 181.9675,-184.9139 226.247,-318.2242 50.488,-152.0057 36.2598,-467.5199 -26.8544,-588.1098 -101.1788,-193.3187 -238.6042,-296.2612 -594.8237,-301.44 l -356.4904,-5.3709 z m -6727.0127,6.0423 0,2451.8015 266.52829,0 0,-1963.7239 966.08604,1963.7239 276.59973,0 0,-2451.8015 -274.586742,0 0,1804.6119 -920.431478,-1804.6119 z m -4691.4534,10.7417 -159.1134,2441.0598 316.2112,0 75.1921,-1955.6676 483.3782,1376.9562 206.106,1.3429 527.0175,-1423.2801 69.1489,2000.6486 293.3847,0 -143.6707,-2441.0598 -314.8682,0 -525.0024,1447.4491 -521.6445,-1447.4491 z m 3840.1708,34.2393 -1268.8676,13.4272 -11.4143,2393.3933 1274.911,0 0,-206.7784 -966.7563,0 0,-900.9634 805.6303,-12.0845 0,-236.3181 -805.6303,-11.4132 0,-793.5457 909.0195,-11.4131 z m 5764.9546,149.0416 c 9.8805,-0.3543 19.7756,-0.018 30.2125,0 241.1152,0.4102 372.274,129.002 444.4394,436.383 54.4155,231.8191 53.9858,979.9831 -0.6662,1184.9479 -52.9416,198.52 -134.0011,322.8123 -249.7451,381.3314 -154.7416,78.2357 -330.678,61.8089 -462.5651,-43.6381 -173.6896,-138.8693 -214.8348,-318.2569 -214.8348,-939.2305 0,-536.7043 24.0226,-687.5172 134.9421,-847.2546 82.4276,-118.7001 170.0439,-167.219 318.2238,-172.5391 z m 1791.8574,48.3378 252.4308,8.0563 c 205.9447,6.2328 266.2253,15.3536 326.9503,51.0232 220.3302,134.6494 222.9255,576.2489 -38.9385,743.8651 -70.9042,34.3249 -149.4134,49.2448 -302.1115,56.3941 -113.4994,5.3142 -213.3569,1.7792 -222.2188,-7.3849 -8.862,-9.1632 -16.1123,-204.6834 -16.1123,-434.3688 z"
       id="path3781"
       inkscape:connector-curvature="0"
       sodipodi:nodetypes="cccccscscccccccssccccccccccccsccccccscccccsscccccscccccccscccccsscccccscccccccccccccccscsssscssscccccccccccccccccccccssccccccccccccccccccccccccccccccccccccccccccsccssscccccccsssc" />
  </g>
</svg>
