<?xml version="1.0" encoding="UTF-8" standalone="no"?>
<!-- Created with Inkscape (http://www.inkscape.org/) -->

<svg
   xmlns:dc="http://purl.org/dc/elements/1.1/"
   xmlns:cc="http://creativecommons.org/ns#"
   xmlns:rdf="http://www.w3.org/1999/02/22-rdf-syntax-ns#"
   xmlns:svg="http://www.w3.org/2000/svg"
   xmlns="http://www.w3.org/2000/svg"
   xmlns:sodipodi="http://sodipodi.sourceforge.net/DTD/sodipodi-0.dtd"
   xmlns:inkscape="http://www.inkscape.org/namespaces/inkscape"
   width="645.71429"
   height="458.57141"
   id="svg2"
   version="1.1"
   inkscape:version="0.48.3.1 r9886"
   sodipodi:docname="mentor_logo.svg">
  <defs
     id="defs4" />
  <sodipodi:namedview
     id="base"
     pagecolor="#ffffff"
     bordercolor="#666666"
     borderopacity="1.0"
     inkscape:pageopacity="0.0"
     inkscape:pageshadow="2"
     inkscape:zoom="0.7"
     inkscape:cx="522.96854"
     inkscape:cy="79.256083"
     inkscape:document-units="px"
     inkscape:current-layer="layer1"
     showgrid="false"
     inkscape:window-width="1400"
     inkscape:window-height="1000"
     inkscape:window-x="0"
     inkscape:window-y="0"
     inkscape:window-maximized="1"
     fit-margin-top="0"
     fit-margin-left="0"
     fit-margin-right="0"
     fit-margin-bottom="0" />
  <metadata
     id="metadata7">
    <rdf:RDF>
      <cc:Work
         rdf:about="">
        <dc:format>image/svg+xml</dc:format>
        <dc:type
           rdf:resource="http://purl.org/dc/dcmitype/StillImage" />
        <dc:title></dc:title>
      </cc:Work>
    </rdf:RDF>
  </metadata>
  <g
     inkscape:label="Capa 1"
     inkscape:groupmode="layer"
     id="layer1"
     transform="translate(-67.14286,-153.79076)">
    <path
       style="fill:#ff7f00;fill-opacity:1;stroke:none"
       d="m 279.62676,215.5422 -175.75,53.8125 67.4375,155.6875 375,-0.65625 -266.6875,-208.84375 z m -14.625,24.15625 213.1563,160.09375 -283.5938,12.125 -68.1875,-120.1875 138.625,-52.03125 z"
       id="path2998"
       inkscape:connector-curvature="0" />
    <path
       style="fill:#174fe5;fill-opacity:1;stroke:none"
       d="m 105.93366,171.77301 112.1933,0 77.338,162.70089 -189.6429,-83.75 z"
       id="path2996"
       inkscape:connector-curvature="0" />
    <path
       style="fill:#0c2c7f;fill-opacity:1"
       d="m 650.81826,358.63119 -5.5313,1.40625 -0.031,27.875 c -0.01,15.5375 0.3088,29.32736 0.6562,30.625 0.3538,1.32166 2.0108,2.94286 3.75,3.71875 1.8408,0.82113 4.5188,1.15975 6.5938,0.8125 5.0444,-0.84416 5.8973,-1.5425 4.9375,-4.09375 -0.7008,-1.86315 -1.3806,-2.11093 -4.375,-1.625 -3.1489,0.51099 -3.618,0.27729 -4.5313,-2.125 -0.6065,-1.59509 -0.7657,-13.69849 -1.0312,-29.71875 l -0.4375,-26.875 z m -43.9063,20.03125 -5.3125,1 -0.3437,18.375 c -0.3217,17.0346 0.1487,18.53575 2.0625,20.96875 1.1346,1.44241 3.4971,3.0695 5.25,3.59375 4.1182,1.23163 9.3022,0.42584 13.625,-2.09375 l 3.4375,-2 1.7187,2.28125 c 0.8524,1.13008 0.9084,2.21585 1.625,2.28125 l 5.0313,-2.4375 c 0.055,-0.59641 -0.6275,-1.84158 -1.2813,-3.40625 -1.0983,-2.62879 -1.1984,-7.89994 -1.4687,-21.125 l -0.3438,-17.34375 -5.5625,0.8125 c -1.1138,0.16234 -0.091,3.31853 -0.3125,16.84375 l -0.2812,16.75 -4.8438,2.40625 c -3.7858,1.87671 -5.4532,2.21982 -7.5,1.5 -4.4684,-1.57145 -4.7745,-4.46214 -5.1562,-22.25 z m -33.6562,0.25 c -0.7429,0.0283 -1.5077,0.0849 -2.2813,0.1875 -5.2539,0.69696 -8.1949,1.60212 -10.8437,3.40625 l 2.1875,5.0625 c 1.8362,-0.77508 0.2051,-0.0876 4.0312,-1.4375 4.4702,-1.57718 9.712,-1.88139 11.5,-0.6875 2.3931,1.73021 3.8465,3.54995 3.375,10.375 -6.3956,-0.37478 -12.4058,-0.41307 -18.5,4.46875 -3.0304,2.77722 -4.404,5.11535 -4.75,9.78125 -0.4991,6.72891 2.5797,11.04728 7.5,12.5 1.8085,0.53392 4.1813,0.76153 5.2813,0.53125 1.1,-0.23028 2.4829,-0.39825 3.0937,-0.40625 0.6107,-0.008 2.7162,-1.08967 4.6563,-2.40625 l 3.5312,-2.40625 1.0938,2.40625 1.7812,2.8125 5.1875,-2.9375 c 0.012,-0.71716 -0.6817,-2.24569 -1.3125,-4 -0.9635,-2.67959 -1.471,-8.33918 -1.5,-17.125 -0.039,-11.59528 -0.2805,-13.39074 -2.0625,-15.65625 -2.4069,-3.05988 -6.7683,-4.66656 -11.9687,-4.46875 z m 106.8437,0 c -0.7429,0.0283 -1.5076,0.0849 -2.2812,0.1875 -5.2539,0.69696 -8.195,1.60212 -10.8438,3.40625 l 2.1875,5.0625 c 1.8363,-0.77508 0.2052,-0.0876 4.0313,-1.4375 4.4702,-1.57718 9.712,-1.88139 11.5,-0.6875 2.393,1.73021 3.8464,3.54995 3.375,10.375 -6.3956,-0.37478 -12.4058,-0.41307 -18.5,4.46875 -3.0304,2.77722 -4.404,5.11535 -4.75,9.78125 -0.4991,6.72891 2.5797,11.04728 7.5,12.5 1.8085,0.53392 4.1812,0.76153 5.2812,0.53125 1.1,-0.23028 2.483,-0.39825 3.0938,-0.40625 0.6107,-0.008 2.7161,-1.08966 4.6562,-2.40625 l 3.5313,-2.40625 1.0937,2.40625 1.7813,2.8125 5.1875,-2.9375 c 0.012,-0.71716 -0.6817,-2.24569 -1.3125,-4 -0.9635,-2.67959 -1.471,-8.33918 -1.5,-17.125 -0.039,-11.59528 -0.2805,-13.39074 -2.0625,-15.65625 -2.407,-3.05988 -6.7684,-4.66656 -11.9688,-4.46875 z m -98.8437,22.09375 -0.031,11.25 c -6.741,7.44613 -18.4733,8.21331 -15.9375,-4.78125 0.962,-3.48472 4.3932,-4.90433 10.625,-5.75 l 5.3438,-0.71875 z m 106.8437,0 -0.031,11.25 c -6.7411,7.44613 -18.4734,8.21331 -15.9375,-4.78125 0.962,-3.48472 4.3932,-4.90433 10.625,-5.75 l 5.3437,-0.71875 z m -128.6562,59.78125 c -13.3455,0.0697 -25.0181,7.57623 -31.0313,20.75 -4.7583,10.42491 -6.4375,20.36132 -6.4375,38.125 0,32.81294 8.2595,50.86828 26.2813,57.40625 6.4317,2.33332 19.8113,1.68592 26.5937,-1.28125 9.7012,-4.2441 17.0212,-14.54864 21.0313,-29.625 1.5106,-5.67933 1.8337,-10.67901 1.8437,-26.5 0.01,-17.40822 -0.2235,-20.35826 -2.2812,-27.46875 -4.9743,-17.18897 -12.197,-25.96005 -24.4688,-29.6875 -3.9097,-1.18755 -7.7945,-1.73826 -11.5312,-1.71875 z m -58.0938,2.03125 -70.0625,0.34375 0,11.5 26.9688,0 1.1875,102.625 13.2812,0 -0.4687,-102.625 25.7187,0 z m 141.9063,0.0625 -13.5,0.28125 c -0.2273,49.64595 -0.8486,73.23491 -0.6875,114.21875 l 12.7812,-0.0937 0.4063,-51.625 12.625,0 13.3437,25.75 14.3438,27.0625 14.1875,-1.8125 -12.9688,-25.21875 -14.625,-27.28125 9.0938,-4.8125 c 6.161,-3.26154 8.4701,-8.60726 10.5312,-14.8125 2.3501,-7.07548 1.6878,-21.76185 -1.25,-27.375 -4.7096,-8.99848 -11.1064,-13.79019 -27.6875,-14.03125 l -16.5937,-0.25 z m -313.125,0.28125 0,114.125 12.4062,0 0,-91.40625 44.9688,91.40625 12.875,0 0,-114.125 -12.7813,0 0,84 -42.8437,-84 z m -218.375,0.5 -7.4063,113.625 14.7188,0 3.5,-91.03125 22.5,64.09375 9.5937,0.0625 24.5313,-66.25 3.2187,93.125 13.6563,0 -6.6875,-113.625 -14.6563,0 -24.4375,67.375 -24.2812,-67.375 z m 178.75,1.59375 -59.0625,0.625 -0.5313,111.40625 59.3438,0 0,-9.625 -45,0 0,-41.9375 37.5,-0.5625 0,-11 -37.5,-0.53125 0,-36.9375 42.3125,-0.53125 z m 268.3437,6.9375 c 0.4599,-0.0165 0.9205,-8.3e-4 1.4063,0 11.2233,0.0191 17.3284,6.00471 20.6875,20.3125 2.5329,10.79058 2.5129,45.61568 -0.031,55.15625 -2.4643,9.24059 -6.2374,15.02607 -11.625,17.75 -7.2028,3.64166 -15.3922,2.87703 -21.5312,-2.03125 -8.0848,-6.464 -10,-14.81404 -10,-43.71875 0,-24.98219 1.1182,-32.00214 6.2812,-39.4375 3.8368,-5.52518 7.9151,-7.78361 14.8125,-8.03125 z m 83.4063,2.25 11.75,0.375 c 9.5862,0.29012 12.3921,0.71467 15.2187,2.375 10.2558,6.26758 10.3766,26.82288 -1.8125,34.625 -3.3004,1.59772 -6.9548,2.29221 -14.0625,2.625 -5.2831,0.24736 -9.9312,0.0828 -10.3437,-0.34375 -0.4125,-0.42654 -0.75,-9.52749 -0.75,-20.21875 z"
       id="path3781"
       inkscape:connector-curvature="0"
       sodipodi:nodetypes="cccccscscccccccssccccccccccccsccccccscccccsscccccscccccccscccccsscccccscccccccccccccccscsssscssscccccccccccccccccccccssccccccccccccccccccccccccccccccccccccccccccsccssscccccccsssc" />
  </g>
</svg>
